<svg fill="none" height="60" viewBox="0 0 60 60" width="60" xmlns="http://www.w3.org/2000/svg"><path d="m30.0014 57.3543c15.1066 0 27.3529-12.2463 27.3529-27.3529s-12.2463-27.35296-27.3529-27.35296-27.35296 12.24636-27.35296 27.35296 12.24636 27.3529 27.35296 27.3529z" fill="#d3202f"/><path d="m33.3286 27.7225h-6.6548c-.4699 0-.8496-.3797-.8496-.8495s.3797-.8496.8496-.8496h6.6548c.4698 0 .8495.3798.8495.8496s-.3797.8495-.8495.8495z" fill="#0f2346"/><path d="m41.859 23.5665c1.1714-.5985 1.9694-1.8149 1.9694-3.2244 0-1.9308-1.5575-3.5334-3.4883-3.5977-1.4996-.0515-2.8061.8173-3.3917 2.0852-.4055.8689-1.2872 1.4095-2.2462 1.4095h-9.3064c-.959 0-1.8407-.5406-2.2462-1.4095-.5921-1.2679-1.8922-2.1367-3.3918-2.0852-1.9308.0643-3.4883 1.6669-3.4883 3.5977 0 1.4095.7981 2.6259 1.9694 3.2244-1.1713.5986-1.9694 1.815-1.9694 3.2244 0 1.9308 1.5575 3.5334 3.4883 3.5977 1.4996.0515 2.8061-.8173 3.3918-2.0852.4055-.8689 1.2872-1.4095 2.2462-1.4095h1.3258v9.0747c0 .959-.5406 1.8407-1.4095 2.2462-1.2679.5921-2.1368 1.8922-2.0853 3.3918.0644 1.9308 1.667 3.4883 3.5977 3.4883 1.4095 0 2.6259-.7981 3.2245-1.9694.5985 1.1713 1.8149 1.9694 3.2244 1.9694 1.9308 0 3.5334-1.5575 3.5977-3.4883.0515-1.4996-.8173-2.8061-2.0852-3.3918-.8689-.4055-1.4095-1.2872-1.4095-2.2462v-2.2976c-.7788-.3604-1.3258-1.152-1.3258-2.0659 0-.914.5406-1.7056 1.3258-2.066v-2.6388h1.3258c.959 0 1.8407.5407 2.2462 1.4095.5921 1.2679 1.8921 2.1368 3.3917 2.0853 1.9308-.0644 3.4883-1.6669 3.4883-3.5977 0-1.4095-.798-2.6259-1.9694-3.2245z" fill="#f79147"/><g fill="#0f2346"><path d="m33.2611 45.9459c-1.2357 0-2.3877-.502-3.218-1.3645-.8238.8625-1.9758 1.3645-3.218 1.3645h-.0128c-2.3749 0-4.3701-1.9437-4.4409-4.3121-.0579-1.7892.9525-3.4368 2.5744-4.1899.5599-.2574.9204-.8366.9204-1.4738v-8.2252h-.4763c-.6372 0-1.2164.3604-1.4738.9204-.7531 1.6218-2.4007 2.6323-4.1899 2.5744-2.3684-.0773-4.3056-2.0724-4.3121-4.4409 0-1.2421.502-2.3942 1.3645-3.2244-.8689-.8302-1.3709-1.9823-1.3645-3.2244 0-2.3749 1.9373-4.3701 4.3121-4.4409 1.7892-.0579 3.4368.9526 4.1899 2.5744.2574.56.8366.9204 1.4738.9204h9.3064c.6372 0 1.2164-.3604 1.4739-.9204.753-1.6218 2.3942-2.6387 4.1898-2.5744 2.3684.0773 4.3057 2.0724 4.3121 4.4409 0 1.2421-.502 2.3942-1.3644 3.2244.8688.8302 1.3709 1.9823 1.3644 3.2244 0 2.3749-1.9372 4.3701-4.3121 4.4409-1.7892.0514-3.4368-.9526-4.1898-2.5744-.2575-.56-.8367-.9204-1.4739-.9204h-.4762v1.7957c0 .3282-.1931.6307-.4956.7723-.5084.2317-.8302.7401-.8302 1.2936s.3282 1.0619.8302 1.2936c.3025.1416.4956.4377.4956.7724v2.2976c0 .6372.3604 1.2164.9203 1.4738 1.6219.7531 2.6323 2.4007 2.5744 4.1899-.0772 2.3684-2.0724 4.3056-4.4408 4.3121zm-3.218-3.6621c.3154 0 .6114.1802.753.4634.4763.9332 1.4159 1.506 2.4586 1.506h.0064c1.4739 0 2.7096-1.2035 2.7546-2.6709.0386-1.107-.5921-2.1303-1.5961-2.6002-1.1521-.5341-1.8986-1.7184-1.8986-3.012v-1.8149c-.8174-.5793-1.3258-1.5318-1.3258-2.5487s.5084-1.9758 1.3258-2.5486v-2.1561c0-.4698.3797-.8496.8495-.8496h1.3258c1.2937 0 2.4779.7466 3.0121 1.8987.4698 1.004 1.4867 1.6283 2.6001 1.5961 1.4674-.0451 2.6645-1.2808 2.671-2.7546 0-1.0426-.5729-1.9887-1.5061-2.465-.2832-.148-.4634-.4376-.4634-.753s.1802-.6114.4634-.753c.9332-.4763 1.5125-1.4224 1.5061-2.465 0-1.4738-1.2036-2.7031-2.671-2.7546-1.1134-.0322-2.1303.5921-2.6001 1.5961-.5342 1.1521-1.7184 1.8986-3.0121 1.8986h-9.3064c-1.2936 0-2.4779-.7465-3.012-1.8986-.4699-1.004-1.4868-1.6283-2.6002-1.5961-1.4674.0451-2.6645 1.2808-2.6709 2.7546 0 1.0426.5728 1.9887 1.506 2.465.2832.148.4634.4376.4634.753s-.1802.6114-.4634.753c-.9332.4763-1.5124 1.4224-1.506 2.465 0 1.4738 1.2035 2.7031 2.6709 2.7546 1.1134.0322 2.1303-.5921 2.6002-1.5961.5341-1.1521 1.7184-1.8987 3.012-1.8987h1.3258c.4698 0 .8496.3798.8496.8496v9.0747c0 1.2937-.7466 2.4779-1.8987 3.0121-1.004.4698-1.6347 1.4867-1.5961 2.6001.0451 1.4674 1.2808 2.6645 2.7546 2.671h.0065c1.0426 0 1.9822-.5793 2.4585-1.5061.148-.2832.4377-.4634.753-.4634z"/><path d="m19.9597 21.2162c.558 0 1.0104-.4524 1.0104-1.0104 0-.5581-.4524-1.0105-1.0104-1.0105-.5581 0-1.0105.4524-1.0105 1.0105 0 .558.4524 1.0104 1.0105 1.0104z"/><path d="m19.9597 27.7553c.558 0 1.0104-.4524 1.0104-1.0105 0-.558-.4524-1.0104-1.0104-1.0104-.5581 0-1.0105.4524-1.0105 1.0104 0 .5581.4524 1.0105 1.0105 1.0105z"/><path d="m40.1862 21.2162c.5581 0 1.0105-.4524 1.0105-1.0104 0-.5581-.4524-1.0105-1.0105-1.0105-.558 0-1.0104.4524-1.0104 1.0105 0 .558.4524 1.0104 1.0104 1.0104z"/><path d="m40.1862 27.7553c.5581 0 1.0105-.4524 1.0105-1.0105 0-.558-.4524-1.0104-1.0105-1.0104-.558 0-1.0104.4524-1.0104 1.0104 0 .5581.4524 1.0105 1.0104 1.0105z"/><path d="m26.7448 42.474c.5581 0 1.0105-.4524 1.0105-1.0104 0-.5581-.4524-1.0105-1.0105-1.0105-.558 0-1.0104.4524-1.0104 1.0105 0 .558.4524 1.0104 1.0104 1.0104z"/><path d="m33.2722 42.474c.558 0 1.0104-.4524 1.0104-1.0104 0-.5581-.4524-1.0105-1.0104-1.0105-.5581 0-1.0105.4524-1.0105 1.0105 0 .558.4524 1.0104 1.0105 1.0104z"/></g></svg>